<?xml version="1.0" encoding="utf-8"?>
<!-- Generator: Adobe Illustrator 21.1.0, SVG Export Plug-In . SVG Version: 6.00 Build 0)  -->
<svg version="1.1" id="Layer_1" xmlns="http://www.w3.org/2000/svg" xmlns:xlink="http://www.w3.org/1999/xlink" x="0px" y="0px"
	 viewBox="0 0 64 64" style="enable-background:new 0 0 64 64;" xml:space="preserve">
<style type="text/css">
	.st0{fill:#FFC300;}
</style>
<g>
	<path class="st0" d="M16.6,62.9l8-13.5c0.6-1,0.1-2.2-1-2.8c-1.2-0.5-2.6-0.1-3.2,0.9l-5.1,8.6c-1.2-7.8,0.6-16,0.6-16.1
		C20,17.5,40.3,1.6,61.3,4.4c1.3,0.2,2.5-0.6,2.7-1.7c0-0.1,0-0.2,0-0.3c0-1-0.8-1.9-2-2C38.5-2.8,15.7,14.6,11.3,39.3
		c-0.1,0.4-1.8,8.4-0.7,16.5L4,50.2c-0.9-0.8-2.4-0.8-3.3,0c-0.9,0.8-0.9,2.1,0,2.9l12.1,10.3c0,0,0.1,0,0.1,0
		c0.2,0.1,0.4,0.3,0.6,0.4c0,0,0,0,0.1,0c0.2,0.1,0.4,0.1,0.7,0.1c0,0,0.1,0,0.1,0c0.1,0,0.1,0,0.2,0c0.2,0,0.4,0,0.6-0.1
		c0.1,0,0.1,0,0.2-0.1c0.2-0.1,0.5-0.2,0.7-0.4c0,0,0,0,0,0l0,0C16.4,63.2,16.5,63.1,16.6,62.9z"/>
</g>
</svg>
