<?xml version="1.0" encoding="utf-8"?>
<!-- Generator: Adobe Illustrator 21.1.0, SVG Export Plug-In . SVG Version: 6.00 Build 0)  -->
<svg version="1.1" id="Layer_1" xmlns="http://www.w3.org/2000/svg" xmlns:xlink="http://www.w3.org/1999/xlink" x="0px" y="0px"
	 viewBox="0 0 64 64" style="enable-background:new 0 0 64 64;" xml:space="preserve">
<style type="text/css">
	.st0{fill:#FFC300;}
</style>
<g>
	<path class="st0" d="M47.8,63.4L47.8,63.4C47.8,63.4,47.8,63.4,47.8,63.4c0.2,0.2,0.4,0.3,0.7,0.4c0.1,0,0.1,0.1,0.2,0.1
		c0.2,0.1,0.4,0.1,0.6,0.1c0.1,0,0.1,0,0.2,0c0,0,0.1,0,0.1,0c0.2,0,0.5-0.1,0.7-0.1c0,0,0,0,0.1,0c0.2-0.1,0.5-0.2,0.6-0.4
		c0,0,0.1,0,0.1,0l12.1-10.3c0.9-0.8,0.9-2.1,0-2.9c-0.9-0.8-2.4-0.8-3.3,0l-6.5,5.6c1.1-8.1-0.6-16.1-0.7-16.5
		C48.3,14.6,25.5-2.8,2,0.4c-1.2,0.2-2,1-2,2c0,0.1,0,0.2,0,0.3c0.2,1.1,1.4,1.9,2.7,1.7C23.7,1.6,44,17.5,48.1,40
		c0,0.1,1.8,8.4,0.6,16.1l-5.1-8.6c-0.6-1-2-1.4-3.2-0.9c-1.2,0.5-1.6,1.7-1,2.8l8,13.5C47.5,63.1,47.6,63.2,47.8,63.4z"/>
</g>
</svg>
