<?xml version="1.0" encoding="utf-8"?>
<!-- Generator: Adobe Illustrator 21.1.0, SVG Export Plug-In . SVG Version: 6.00 Build 0)  -->
<svg version="1.1" id="Capa_1" xmlns="http://www.w3.org/2000/svg" xmlns:xlink="http://www.w3.org/1999/xlink" x="0px" y="0px"
	 viewBox="0 0 444.5 444.5" style="enable-background:new 0 0 444.5 444.5;" xml:space="preserve">
<g>
	<path d="M222.4,231.4L83.7,92.7c-7-7-15.7-10.6-25.8-10.6C47.6,82.1,39,85.6,32,92.7l-21.4,21.4c-7,7-10.6,15.7-10.6,25.8
		s3.5,18.8,10.6,25.8l185.9,186.1c7,7,15.7,10.6,25.8,10.6s18.8-3.5,25.8-10.6L434,165.7c7-7,10.6-15.7,10.6-25.8
		s-3.5-18.8-10.6-25.8l-21.4-21.4c-7-7-15.6-10.6-25.7-10.6c-10.1,0-18.7,3.5-26,10.6L222.4,231.4z"/>
</g>
</svg>
