<?xml version="1.0" encoding="utf-8"?>
<!-- Generator: Adobe Illustrator 21.1.0, SVG Export Plug-In . SVG Version: 6.00 Build 0)  -->
<svg version="1.1" id="Layer_1" xmlns="http://www.w3.org/2000/svg" xmlns:xlink="http://www.w3.org/1999/xlink" x="0px" y="0px"
	 viewBox="0 0 512 520.5" style="enable-background:new 0 0 512 520.5;" xml:space="preserve">
<style type="text/css">
	.st0{display:none;}
	.st1{display:inline;}
	.st2{fill:none;stroke:#000000;stroke-width:19;stroke-linejoin:round;stroke-miterlimit:10;}
	.st3{fill:none;stroke:#000000;stroke-width:19;stroke-miterlimit:10;}
	.st4{display:none;stroke:#000000;stroke-width:5;stroke-miterlimit:10;}
	.st5{fill:#FFC300;}
</style>
<g id="_x30_16---Work-Life-Balance" class="st0">
	<path id="Shape" class="st1" d="M-52.7,143.2C-39,130.6-20,113.2-20,78.9C-20,41.4-43.3,17-79.7,17c-18.1,0-35.3,8-46.9,21.9
		c-11.6-13.9-28.8-22-46.9-21.9c-36.1,0-59.7,24.3-59.7,61.9c0,34.1,18.9,51.7,32.7,64.3c9.6,8.5,12.4,12.4,50.4,44.5h-190.3
		c3.1-5.2,4.8-11.1,4.8-17.1v-36.5c5.2-3,8.5-8.6,8.5-14.7V85.3c0-18.9-15.3-34.1-34.1-34.1h-8.5V34.1c0-14.1-11.5-25.6-25.6-25.6
		h-51.2c-14.1,0-25.6,11.5-25.6,25.6v17.1h-8.5c-18.9,0-34.1,15.3-34.1,34.1v34.1c0,6.1,3.3,11.6,8.5,14.7v36.5
		c0,6,1.7,11.9,4.8,17.1c-10.7-0.1-20.6,5.5-26,14.7s-5.5,20.6-0.3,29.9c5.3,9.3,15.1,15.1,25.7,15.2h158.5
		c3.6,28.2,24.2,51.3,51.9,57.9l-122.6,161.1c-7.7,10.1-9.1,23.8-3.4,35.3c5.6,11.5,17.3,18.7,30.1,18.8h223.1
		c12.8,0,24.4-7.3,30.1-18.8c5.6-11.5,4.3-25.1-3.4-35.3l-122.4-161.2c27.7-6.6,48.3-29.6,51.9-57.9h158.5
		c16.5,0,29.9-13.4,29.9-29.9s-13.4-29.9-29.9-29.9h-53.2C-65,155.5-62.7,152-52.7,143.2L-52.7,143.2z M-455.2,34.1
		c0-4.7,3.8-8.5,8.5-8.5h51.2c4.7,0,8.5,3.8,8.5,8.5v17.1h-68.3L-455.2,34.1L-455.2,34.1z M-497.9,85.3c0-9.4,7.6-17.1,17.1-17.1
		h119.5c9.4,0,17.1,7.6,17.1,17.1v34.1h-51.2c0-9.4-7.6-17.1-17.1-17.1h-17.1c-9.4,0-17.1,7.6-17.1,17.1h-51.2L-497.9,85.3
		L-497.9,85.3z M-412.5,145h-17.1v-25.6h17.1V145z M-489.3,170.6v-34.1h42.7v8.5c0,9.4,7.6,17.1,17.1,17.1h17.1
		c9.4,0,17.1-7.6,17.1-17.1v-8.5h42.7v34.1c0,9.4-7.6,17.1-17.1,17.1h-102.4C-481.7,187.7-489.3,180.1-489.3,170.6z M-164.5,503.4
		h-223.1c-6.3,0-12-3.6-14.8-9.3c-2.8-5.6-2.1-12.4,1.7-17.4l124.7-164l124.6,164.1c3.8,5,4.5,11.7,1.7,17.4
		C-152.5,499.8-158.2,503.4-164.5,503.4L-164.5,503.4z M-276,290.1c-25,0-46.3-18.1-50.4-42.7h100.9C-229.7,272-251,290.1-276,290.1
		z M-37.1,217.6c0,7.1-5.7,12.8-12.8,12.8h-452.3c-7.1,0-12.8-5.7-12.8-12.8s5.7-12.8,12.8-12.8h452.3
		C-42.8,204.8-37.1,210.5-37.1,217.6z M-71.2,136.5c-11.2,10.9-42.7,37.6-55.8,48.3c-12.5-10.3-44.3-37-55.1-48.3
		c-16.2-15.9-34.1-26.9-34.1-57.9c0-28.2,15.4-44.5,42.7-44.5c14.7-0.1,28.5,7.1,36.9,19.2c2.5,3.2,6.3,5.1,10.4,5.1
		s7.9-1.9,10.4-5.1c8.3-11.9,21.7-19,36.2-19.2c26.9,0,42.7,16.3,42.7,44.8C-37.1,110.2-55.8,122-71.2,136.5z"/>
	<path id="Shape_1_" class="st1" d="M-62.7,70.4c-4.7,0-8.5,3.8-8.5,8.5c0,10.6-2.9,14.4-14.3,24.9c-2.6,2.4-3.5,6.1-2.2,9.4
		s4.5,5.5,8,5.4c2.2,0,4.2-0.8,5.8-2.3c12.3-11.3,19.8-19.5,19.8-37.5C-54.1,74.2-58,70.4-62.7,70.4z"/>
	<path id="Shape_2_" class="st1" d="M-377.7,477.8c0,4.7,3.8,8.5,8.5,8.5h186.4c4.7,0,8.5-3.8,8.5-8.5s-3.8-8.5-8.5-8.5h-186.4
		C-373.9,469.3-377.7,473.1-377.7,477.8L-377.7,477.8z"/>
</g>
<path class="st2" d="M414,510.5H116c-0.3,0-0.5,0-0.8,0c-8.3-0.6-12.3-10.6-7.1-17L265,309.1l0,0l0,0l156.9,184.4
	c5.2,6.5,1.2,16.5-7.1,17C414.5,510.5,414.3,510.5,414,510.5z"/>
<path class="st3" d="M301.9,246.9c2.3,5.4,3.6,11.4,3.6,17.6c0,24.6-20,44.6-44.6,44.6s-44.6-20-44.6-44.6"/>
<path class="st3" d="M26.5,312l194-45.2l85.4-19.9L493,203.3c8.8-2.1,14.4-11,12.3-19.8l0,0c-2.1-8.8-11-14.4-19.8-12.3L19,279.9
	c-8.8,2.1-14.4,11-12.3,19.8l0,0C8.7,308.5,17.7,314.1,26.5,312z"/>
<path class="st4" d="M88,241.6c-2.4,0-4.7-0.9-6.5-2.4c-6.7-5.9-13.2-11.4-19-16.3l0,0c-16.8-14.3-31.3-26.7-41.4-38.9
	C9.8,170.3,4.6,157.4,4.6,143.3c0-13.7,4.7-26.4,13.2-35.6c8.6-9.4,20.5-14.5,33.4-14.5c9.6,0,18.5,3,26.2,9.1
	c3.9,3,7.5,6.7,10.6,11.1c3.1-4.3,6.7-8,10.6-11.1c7.8-6,16.6-9.1,26.2-9.1c12.9,0,24.7,5.2,33.4,14.5c8.5,9.3,13.2,21.9,13.2,35.6
	c0,14.1-5.3,27-16.6,40.7c-10.1,12.2-24.6,24.6-41.4,38.9c-5.7,4.9-12.3,10.4-19,16.4C92.7,240.7,90.4,241.6,88,241.6z M51.2,102.9
	c-10.1,0-19.4,4-26.2,11.4c-6.9,7.4-10.7,17.7-10.7,29c0,11.9,4.4,22.5,14.3,34.4c9.6,11.5,23.8,23.7,40.2,37.7l0,0
	c5.8,4.9,12.3,10.5,19.1,16.4c6.8-5.9,13.4-11.5,19.1-16.4c16.5-14,30.7-26.1,40.2-37.7c9.9-11.9,14.3-22.6,14.3-34.4
	c0-11.2-3.8-21.5-10.7-29c-6.8-7.3-16.1-11.4-26.2-11.4c-7.4,0-14.2,2.4-20.2,7c-5.4,4.1-9.1,9.4-11.3,13.1c-1.1,1.9-3.1,3-5.3,3
	s-4.2-1.1-5.3-3c-2.2-3.7-5.9-8.9-11.3-13.1C65.4,105.3,58.6,102.9,51.2,102.9z"/>
<path class="st0" d="M339.8,83.2c0,46.5,37.9,84.4,84.4,84.4s84.4-37.9,84.4-84.4S470.7-1.2,424.2-1.2S339.8,36.7,339.8,83.2z
	 M493.2,83.2c0,38.1-31,69-69,69s-69-31-69-69c0-38.1,31-69,69-69S493.2,45.1,493.2,83.2z"/>
<circle class="st5" cx="424.5" cy="83.1" r="83.1"/>
<path d="M415,37.2v9c-8.9,3.2-15.3,11.7-15.3,21.7c0,12.7,10.3,23,23,23c4.2,0,7.7,3.4,7.7,7.7s-3.4,7.7-7.7,7.7
	c-3.3,0-6.8-2.1-10-5.8c-2.7-3.2-7.6-3.7-10.8-0.9c-3.2,2.7-3.7,7.6-0.9,10.8c4.1,4.9,8.9,8.3,14,10v9c0,4.2,3.4,7.7,7.7,7.7
	c4.2,0,7.7-3.4,7.7-7.7v-9c8.9-3.2,15.3-11.7,15.3-21.7c0-12.7-10.3-23-23-23c-4.2,0-7.7-3.4-7.7-7.7c0-4.3,3.4-7.7,7.7-7.7
	c2.7,0,5.6,1.4,8.3,4c3,2.9,7.9,2.9,10.8-0.2c2.9-3,2.9-7.9-0.2-10.8c-3.9-3.8-7.8-5.9-11.3-7.1v-8.9c0-4.2-3.4-7.7-7.7-7.7
	C418.4,29.5,415,33,415,37.2z"/>
<path class="st5" d="M162.5,107.4c-9.2-9.9-21.7-15.4-35.4-15.4c-10.2,0-19.6,3.2-27.8,9.6c-4.2,3.2-7.9,7.1-11.2,11.7
	c-3.3-4.6-7.1-8.5-11.2-11.7C68.7,95.2,59.3,92,49.1,92c-13.7,0-26.2,5.5-35.4,15.4c-9.1,9.8-14,23.2-14,37.8
	c0,15,5.6,28.7,17.6,43.1c10.7,12.9,26.1,26.1,43.9,41.2c6.1,5.2,13,11.1,20.2,17.3c1.9,1.7,4.3,2.6,6.8,2.6s4.9-0.9,6.8-2.6
	c7.2-6.3,14.1-12.2,20.2-17.3c17.8-15.2,33.2-28.3,43.9-41.2c12-14.5,17.6-28.2,17.6-43.1C176.5,130.7,171.5,117.2,162.5,107.4z"/>
</svg>
