<!DOCTYPE svg PUBLIC "-//W3C//DTD SVG 20010904//EN" "http://www.w3.org/TR/2001/REC-SVG-20010904/DTD/svg10.dtd">
<svg version="1.0" xmlns="http://www.w3.org/2000/svg" width="1000px" height="1000px" viewBox="0 0 10000 10000" preserveAspectRatio="xMidYMid meet">
<g id="layer101" fill="#f8c443" stroke="none">
 <path d="M4640 9994 c-25 -2 -108 -11 -185 -20 -1543 -168 -2907 -1033 -3727 -2365 -405 -657 -650 -1412 -718 -2214 -13 -155 -13 -635 0 -790 115 -1364 746 -2583 1784 -3449 757 -632 1650 -1013 2651 -1131 187 -23 720 -31 926 -16 1496 114 2837 869 3708 2090 526 737 839 1600 911 2515 13 166 13 606 0 772 -114 1452 -842 2768 -2010 3636 -636 472 -1392 792 -2170 917 -285 46 -385 53 -760 56 -201 1 -385 1 -410 -1z m732 -1270 c1446 -141 2697 -1133 3169 -2512 138 -404 199 -771 199 -1210 0 -582 -117 -1103 -364 -1617 -508 -1059 -1486 -1821 -2634 -2054 -286 -58 -366 -65 -742 -65 -376 0 -456 7 -742 65 -978 198 -1828 774 -2384 1614 -310 469 -500 972 -586 1555 -20 138 -23 192 -23 500 0 386 12 501 80 810 207 930 764 1748 1560 2289 728 494 1584 712 2467 625z"/>
 <path d="M4861 5615 c-185 -41 -349 -173 -433 -351 -60 -127 -58 -77 -58 -1514 0 -1455 -2 -1390 65 -1527 231 -469 899 -469 1130 0 66 135 65 108 65 1180 l0 967 968 0 c1057 0 1041 0 1168 59 336 157 464 570 277 891 -74 126 -207 233 -353 283 l-65 22 -1350 2 c-1122 1 -1361 -1 -1414 -12z"/>
 </g>

</svg>