<?xml version="1.0" encoding="utf-8"?>
<!-- Generator: Adobe Illustrator 21.1.0, SVG Export Plug-In . SVG Version: 6.00 Build 0)  -->
<svg version="1.1" id="Layer_1" xmlns="http://www.w3.org/2000/svg" xmlns:xlink="http://www.w3.org/1999/xlink" x="0px" y="0px"
	 viewBox="0 0 22 22" style="enable-background:new 0 0 22 22;" xml:space="preserve">
<style type="text/css">
	.st0{fill:#FFFFFF;}
</style>
<g>
	<path d="M3.5,22h15c1.9,0,3.5-1.6,3.5-3.5v-15C22,1.6,20.4,0,18.5,0l-15,0C1.6,0,0,1.6,0,3.5l0,15C0,20.4,1.6,22,3.5,22z"/>
</g>
<g>
	<path class="st0" d="M12.2,11L15,8.3C15,8.2,15,8.1,15,8.1l-1-1c0,0-0.1,0-0.1,0c0,0-0.1,0-0.1,0L11,9.8L8.3,7C8.2,7,8.1,7,8.1,7
		l-1,1C7,8.1,7,8.2,7,8.3L9.8,11L7,13.7C7,13.8,7,13.9,7,13.9l1,1c0,0,0.1,0,0.1,0c0,0,0.1,0,0.1,0l2.7-2.7l2.7,2.7c0,0,0.1,0,0.1,0
		c0,0,0.1,0,0.1,0l1-1c0.1-0.1,0.1-0.2,0-0.2L12.2,11z"/>
</g>
</svg>
