<?xml version="1.0" encoding="utf-8"?>
<!-- Generator: Adobe Illustrator 21.1.0, SVG Export Plug-In . SVG Version: 6.00 Build 0)  -->
<svg version="1.1" id="Layer_1" xmlns="http://www.w3.org/2000/svg" xmlns:xlink="http://www.w3.org/1999/xlink" x="0px" y="0px"
	 viewBox="0 0 47 42" style="enable-background:new 0 0 47 42;" xml:space="preserve">
<style type="text/css">
	.st0{display:none;}
	.st1{fill:#FFC300;}
	.st2{fill:#FFFFFF;}
</style>
<g id="_x37_wdvqa.tif" class="st0">
	<image style="display:inline;overflow:visible;" width="47" height="42" id="Layer_1_1_" xlink:href="5CD76735980B9FA2.png" >
	</image>
</g>
<rect x="6" y="16" class="st1" width="34" height="26"/>
<polygon class="st1" points="23.5,0 0,16 47,16 "/>
<g>
	<path class="st2" d="M24.8,27l4-4c0.1-0.1,0.1-0.3,0-0.4l-1.5-1.5c0,0-0.1-0.1-0.2-0.1c-0.1,0-0.1,0-0.2,0.1l-4,4l-4-4
		c-0.1-0.1-0.3-0.1-0.4,0l-1.5,1.5c-0.1,0.1-0.1,0.3,0,0.4l4,4l-4,4c-0.1,0.1-0.1,0.3,0,0.4l1.5,1.5c0,0,0.1,0.1,0.2,0.1
		c0.1,0,0.1,0,0.2-0.1l4-4l4,4c0,0,0.1,0.1,0.2,0.1c0.1,0,0.1,0,0.2-0.1l1.5-1.5c0.1-0.1,0.1-0.3,0-0.4L24.8,27z"/>
</g>
</svg>
