<?xml version="1.0" encoding="utf-8"?>
<!-- Generator: Adobe Illustrator 21.1.0, SVG Export Plug-In . SVG Version: 6.00 Build 0)  -->
<svg version="1.1" id="Layer_1" xmlns="http://www.w3.org/2000/svg" xmlns:xlink="http://www.w3.org/1999/xlink" x="0px" y="0px"
	 viewBox="0 0 120.5 58.5" style="enable-background:new 0 0 120.5 58.5;" xml:space="preserve">
<style type="text/css">
	.st0{fill:none;stroke:#000000;stroke-width:2;}
</style>
<g>
	<g>
		<path class="st0" d="M25.4,19.3c2.5,0,4.8,0.5,7,1.4c2.2,0.9,4.1,2.2,5.7,3.9c1.6,1.7,2.9,3.6,3.8,5.9c0.9,2.3,1.4,4.8,1.4,7.5
			c0,2.8-0.5,5.5-1.5,7.8c-1,2.4-2.4,4.4-4.3,6.2c-1.9,1.7-4.1,3.1-6.7,4.1c-2.6,1-5.6,1.5-8.8,1.5c-3.1,0-6-0.5-8.5-1.3
			c-2.6-0.9-4.7-2.1-6.5-3.7c-1.8-1.6-3.2-3.4-4.2-5.4c-1-2.1-1.6-4.2-1.7-6.5l15.2-1.3c0.2,0.8,0.5,1.5,1,2.2
			c0.4,0.6,0.9,1.1,1.6,1.5c0.7,0.4,1.6,0.7,2.7,0.7c1.5,0,2.8-0.6,4-1.7c1.1-1.2,1.7-2.6,1.7-4.3c0-1.7-0.6-3.2-1.7-4.3
			c-1.1-1.2-2.5-1.7-4-1.7c-0.9,0-1.6,0.2-2.3,0.5c-0.6,0.3-1.2,0.8-1.6,1.2c-0.5,0.5-0.8,1.1-1.1,1.7H2.4L6.3,1.9h33.1v13H18.4
			L17.6,21c0.6-0.3,1.3-0.6,2.1-0.9c0.7-0.2,1.5-0.4,2.5-0.6C23.1,19.4,24.2,19.3,25.4,19.3z"/>
		<path class="st0" d="M95.4,29.3c0,4.3-0.6,8.3-1.9,11.7c-1.3,3.5-3,6.5-5.2,8.9c-2.2,2.5-4.8,4.3-7.7,5.7c-3,1.3-6.1,2-9.5,2
			c-3.4,0-6.5-0.7-9.5-2c-3-1.3-5.5-3.2-7.7-5.7c-2.2-2.5-3.9-5.4-5.2-8.9c-1.3-3.5-1.9-7.4-1.9-11.7s0.6-8.3,1.9-11.7
			c1.3-3.5,3-6.5,5.2-8.9c2.2-2.5,4.8-4.3,7.7-5.7c3-1.3,6.1-2,9.5-2c3.4,0,6.5,0.7,9.5,2c3,1.3,5.5,3.2,7.7,5.7
			c2.2,2.5,3.9,5.4,5.2,8.9C94.8,21,95.4,24.9,95.4,29.3z M80.2,29.3c0-2.3-0.2-4.2-0.7-6c-0.5-1.7-1.2-3.1-2-4.2
			c-0.8-1.1-1.8-1.9-2.9-2.5c-1.1-0.6-2.3-0.8-3.5-0.8s-2.4,0.3-3.5,0.8c-1.1,0.6-2.1,1.4-2.9,2.5c-0.8,1.1-1.5,2.5-2,4.2
			c-0.5,1.7-0.7,3.7-0.7,6s0.2,4.2,0.7,6c0.5,1.7,1.2,3.1,2,4.2c0.8,1.1,1.8,1.9,2.9,2.5c1.1,0.6,2.3,0.8,3.5,0.8s2.4-0.3,3.5-0.8
			c1.1-0.6,2.1-1.4,2.9-2.5c0.8-1.1,1.5-2.5,2-4.2C80,33.5,80.2,31.5,80.2,29.3z"/>
	</g>
	<g>
		<path class="st0" d="M106.5,20.3v-6h-6v-7h6v-6h7v6h6v7h-6v6H106.5z"/>
	</g>
</g>
</svg>
