<?xml version="1.0" encoding="utf-8"?>
<!-- Generator: Adobe Illustrator 21.1.0, SVG Export Plug-In . SVG Version: 6.00 Build 0)  -->
<svg version="1.1" id="Layer_1" xmlns="http://www.w3.org/2000/svg" xmlns:xlink="http://www.w3.org/1999/xlink" x="0px" y="0px"
	 viewBox="0 0 79.3 57.7" style="enable-background:new 0 0 79.3 57.7;" xml:space="preserve">
<style type="text/css">
	.st0{fill:none;stroke:#000000;stroke-width:2;}
</style>
<g>
	<path class="st0" d="M29.2,1v54.8H14v-37l-5.7,3.9l-7-11.3L16.6,1H29.2z"/>
	<path class="st0" d="M60.5,18.4c2.5,0,4.8,0.5,7,1.4c2.2,0.9,4.1,2.2,5.7,3.9c1.6,1.7,2.9,3.6,3.8,5.9c0.9,2.3,1.4,4.8,1.4,7.5
		c0,2.8-0.5,5.5-1.5,7.8c-1,2.4-2.4,4.4-4.3,6.2c-1.9,1.7-4.1,3.1-6.7,4.1c-2.6,1-5.6,1.5-8.8,1.5c-3.1,0-6-0.5-8.5-1.3
		c-2.6-0.9-4.7-2.1-6.5-3.7c-1.8-1.6-3.2-3.4-4.2-5.4c-1-2.1-1.6-4.2-1.7-6.5l15.2-1.3c0.2,0.8,0.5,1.5,1,2.2
		c0.4,0.6,0.9,1.1,1.6,1.5c0.7,0.4,1.6,0.7,2.7,0.7c1.5,0,2.8-0.6,4-1.7c1.1-1.2,1.7-2.6,1.7-4.3c0-1.7-0.6-3.2-1.7-4.3
		s-2.5-1.7-4-1.7c-0.9,0-1.6,0.2-2.3,0.5c-0.6,0.3-1.2,0.8-1.6,1.2c-0.5,0.5-0.8,1.1-1.1,1.7H37.5L41.4,1h33.1v13H53.5l-0.9,6.1
		c0.6-0.3,1.3-0.6,2.1-0.9c0.7-0.2,1.5-0.4,2.5-0.6C58.2,18.5,59.3,18.4,60.5,18.4z"/>
</g>
</svg>
