<?xml version="1.0" encoding="utf-8"?>
<!-- Generator: Adobe Illustrator 21.1.0, SVG Export Plug-In . SVG Version: 6.00 Build 0)  -->
<svg version="1.1" id="Capa_1" xmlns="http://www.w3.org/2000/svg" xmlns:xlink="http://www.w3.org/1999/xlink" x="0px" y="0px"
	 viewBox="0 0 61.2 45.8" style="enable-background:new 0 0 61.2 45.8;" xml:space="preserve">
<style type="text/css">
	.st0{fill:none;stroke:#E5E5E5;}
</style>
<g>
	<path class="st0" d="M0.5,22.9c0-3.5,0.5-6.6,1.5-9.4c1-2.8,2.3-5.1,4-7C7.7,4.5,9.7,3.1,12,2c2.3-1,4.8-1.5,7.4-1.5
		C22,0.5,24.5,1,26.8,2c2.3,1,4.3,2.5,6,4.4c1.7,1.9,3,4.3,4,7c1,2.8,1.5,5.9,1.5,9.4s-0.5,6.6-1.5,9.4c-1,2.8-2.3,5.1-4,7
		c-1.7,1.9-3.7,3.4-6,4.4s-4.8,1.5-7.4,1.5c-2.6,0-5.1-0.5-7.4-1.5s-4.3-2.5-6-4.4c-1.7-1.9-3-4.3-4-7C1,29.5,0.5,26.4,0.5,22.9z
		 M28.1,22.9c0-2.1-0.2-3.9-0.7-5.5c-0.5-1.6-1.1-2.9-1.9-3.9c-0.8-1.1-1.7-1.8-2.8-2.4c-1.1-0.5-2.2-0.8-3.3-0.8s-2.2,0.3-3.3,0.8
		c-1.1,0.5-2,1.3-2.8,2.4c-0.8,1-1.4,2.4-1.9,3.9c-0.5,1.6-0.7,3.4-0.7,5.5c0,2.1,0.2,3.9,0.7,5.5c0.5,1.6,1.1,2.9,1.9,4
		c0.8,1,1.7,1.8,2.8,2.3c1.1,0.5,2.2,0.8,3.3,0.8s2.2-0.3,3.3-0.8c1.1-0.5,2-1.3,2.8-2.3c0.8-1.1,1.4-2.4,1.9-4
		C27.9,26.8,28.1,25,28.1,22.9z"/>
	<path class="st0" d="M60.7,0.9v44.1H50.5V13.5L46,16.6l-4.9-7.7l11.6-8.1H60.7z"/>
</g>
</svg>
