<?xml version="1.0" encoding="utf-8"?>
<!-- Generator: Adobe Illustrator 21.1.0, SVG Export Plug-In . SVG Version: 6.00 Build 0)  -->
<svg version="1.1" id="Layer_1" xmlns="http://www.w3.org/2000/svg" xmlns:xlink="http://www.w3.org/1999/xlink" x="0px" y="0px"
	 viewBox="0 0 42.5 57.7" style="enable-background:new 0 0 42.5 57.7;" xml:space="preserve">
<style type="text/css">
	.st0{fill:none;stroke:#000000;stroke-width:2;}
</style>
<g>
	<path class="st0" d="M41.5,41.9v14.8H1.9v-10l18.7-19.6c0.9-0.8,1.7-1.7,2.3-2.6c0.6-0.8,1.2-1.6,1.7-2.5c0.5-0.9,0.7-1.8,0.7-2.7
		c0-1.1-0.4-2-1.2-2.8c-0.8-0.8-1.8-1.1-3.2-1.1c-1.5,0-2.8,0.5-3.7,1.5c-1,1-1.5,2.4-1.5,4.1L1,19.7c0.1-2.7,0.7-5.2,1.7-7.5
		c1-2.3,2.4-4.3,4.1-5.9c1.8-1.7,3.9-2.9,6.4-3.9C15.6,1.5,18.4,1,21.5,1c3.1,0,5.9,0.4,8.4,1.3c2.5,0.9,4.6,2.1,6.3,3.6
		c1.7,1.5,3,3.3,3.9,5.4c0.9,2.1,1.3,4.3,1.3,6.7c0,2.2-0.5,4.3-1.4,6.3c-1,2-2,3.8-3.2,5.3c-1.3,1.8-2.8,3.5-4.5,5l-7,7.4H41.5z"/>
</g>
</svg>
