<?xml version="1.0" encoding="utf-8"?>
<!-- Generator: Adobe Illustrator 21.1.0, SVG Export Plug-In . SVG Version: 6.00 Build 0)  -->
<svg version="1.1" id="Layer_1" xmlns="http://www.w3.org/2000/svg" xmlns:xlink="http://www.w3.org/1999/xlink" x="0px" y="0px"
	 viewBox="0 0 37.4 37.9" style="enable-background:new 0 0 37.4 37.9;" xml:space="preserve">
<style type="text/css">
	.st0{fill:#FFC300;}
	.st1{fill:none;stroke:#000000;stroke-width:2;stroke-miterlimit:10;}
</style>
<g>
	<rect x="7.7" y="13.9" class="st0" width="25" height="23"/>
	<g>
		<path d="M31.7,14.9v21h-26v-21H31.7 M33.7,12.9h-30v25h30V12.9L33.7,12.9z"/>
	</g>
	<polygon class="st0" points="6.7,13.9 21.7,2.9 35.7,13.9 	"/>
	<g>
		<path d="M18.7,2.4l13.7,10.5H4.9L18.7,2.4 M18.7,0c-0.1,0-0.2,0-0.3,0.1L0.1,14c-0.4,0.3-0.2,0.9,0.3,0.9h36.4
			c0.5,0,0.7-0.6,0.3-0.9L18.9,0.1C18.9,0,18.8,0,18.7,0L18.7,0z"/>
	</g>
	<g>
		<path d="M18.8,24.8c0,0.7-0.1,1.3-0.3,1.9s-0.5,1-0.8,1.4S17,28.7,16.5,29c-0.4,0.2-0.9,0.3-1.4,0.3c-0.5,0-1-0.1-1.4-0.3
			c-0.4-0.2-0.8-0.5-1.2-0.9c-0.3-0.4-0.6-0.9-0.8-1.4c-0.2-0.6-0.3-1.2-0.3-1.9c0-0.7,0.1-1.3,0.3-1.9c0.2-0.6,0.5-1,0.8-1.4
			c0.3-0.4,0.7-0.7,1.2-0.9c0.4-0.2,0.9-0.3,1.4-0.3c0.5,0,0.9,0.1,1.4,0.3c0.4,0.2,0.8,0.5,1.2,0.9s0.6,0.9,0.8,1.4
			C18.7,23.5,18.8,24.1,18.8,24.8z M13.2,24.8c0,0.5,0.1,0.9,0.2,1.2c0.1,0.4,0.3,0.7,0.4,0.9c0.2,0.2,0.4,0.4,0.6,0.5
			c0.2,0.1,0.5,0.2,0.7,0.2c0.2,0,0.5-0.1,0.7-0.2c0.2-0.1,0.4-0.3,0.6-0.5c0.2-0.2,0.3-0.5,0.4-0.9c0.1-0.4,0.2-0.8,0.2-1.2
			c0-0.5-0.1-0.9-0.2-1.2c-0.1-0.4-0.3-0.7-0.4-0.9c-0.2-0.2-0.4-0.4-0.6-0.5c-0.2-0.1-0.5-0.2-0.7-0.2c-0.2,0-0.5,0.1-0.7,0.2
			c-0.2,0.1-0.4,0.3-0.6,0.5c-0.2,0.2-0.3,0.5-0.4,0.9C13.2,23.9,13.2,24.3,13.2,24.8z"/>
		<path d="M19.8,22.8c0-0.3,0.1-0.7,0.3-1c0.1-0.3,0.4-0.6,0.6-0.8c0.3-0.2,0.6-0.4,0.9-0.6c0.4-0.1,0.8-0.2,1.2-0.2
			s0.8,0.1,1.2,0.2s0.7,0.3,0.9,0.5s0.5,0.5,0.6,0.8c0.1,0.3,0.2,0.6,0.2,0.9s-0.1,0.6-0.2,0.8c-0.1,0.2-0.2,0.4-0.4,0.6
			c-0.2,0.2-0.4,0.3-0.6,0.4c0.2,0.1,0.5,0.3,0.7,0.5c0.2,0.2,0.3,0.4,0.5,0.7c0.1,0.3,0.2,0.6,0.2,1c0,0.3-0.1,0.6-0.2,0.9
			s-0.4,0.6-0.6,0.8s-0.6,0.4-1,0.6s-0.8,0.2-1.3,0.2c-0.5,0-0.9-0.1-1.3-0.2c-0.4-0.1-0.7-0.3-1-0.5c-0.3-0.2-0.5-0.5-0.6-0.8
			c-0.1-0.3-0.2-0.7-0.2-1h1.7c0,0.1,0.1,0.2,0.1,0.4c0.1,0.1,0.2,0.2,0.3,0.3c0.1,0.1,0.3,0.2,0.4,0.2s0.3,0.1,0.5,0.1
			c0.4,0,0.8-0.1,1-0.4s0.4-0.5,0.4-0.8c0-0.3-0.1-0.6-0.4-0.8s-0.6-0.3-1-0.3h-0.8V24h0.7c0.5,0,0.8-0.1,1-0.3
			c0.2-0.2,0.3-0.4,0.3-0.8s-0.1-0.6-0.3-0.8c-0.2-0.2-0.5-0.3-0.9-0.3s-0.7,0.1-0.9,0.3c-0.2,0.2-0.4,0.4-0.4,0.7H19.8z"/>
	</g>
</g>
</svg>
