<?xml version="1.0" encoding="utf-8"?>
<!-- Generator: Adobe Illustrator 21.1.0, SVG Export Plug-In . SVG Version: 6.00 Build 0)  -->
<svg version="1.1" id="Layer_1" xmlns="http://www.w3.org/2000/svg" xmlns:xlink="http://www.w3.org/1999/xlink" x="0px" y="0px"
	 viewBox="0 0 37.4 37.9" style="enable-background:new 0 0 37.4 37.9;" xml:space="preserve">
<style type="text/css">
	.st0{fill:#FFC300;}
	.st1{fill:none;stroke:#000000;stroke-width:2;stroke-miterlimit:10;}
</style>
<g>
	<rect x="7.2" y="13.9" class="st0" width="25" height="23"/>
	<g>
		<path d="M31.2,14.9v21h-26v-21H31.2 M33.2,12.9h-30v25h30V12.9L33.2,12.9z"/>
	</g>
	<polygon class="st0" points="6.2,13.9 21.2,2.9 35.2,13.9 	"/>
	<g>
		<path d="M18.2,2.4L32,12.9H4.5L18.2,2.4 M18.2,0c-0.1,0-0.2,0-0.3,0.1L-0.3,14c-0.4,0.3-0.2,0.9,0.3,0.9h36.4
			c0.5,0,0.7-0.6,0.3-0.9L18.5,0.1C18.5,0,18.3,0,18.2,0L18.2,0z"/>
	</g>
	<g>
		<path d="M17.8,24.8c0,0.7-0.1,1.3-0.3,1.9s-0.5,1-0.8,1.4S16,28.7,15.5,29c-0.4,0.2-0.9,0.3-1.4,0.3c-0.5,0-1-0.1-1.4-0.3
			c-0.4-0.2-0.8-0.5-1.2-0.9c-0.3-0.4-0.6-0.9-0.8-1.4c-0.2-0.6-0.3-1.2-0.3-1.9c0-0.7,0.1-1.3,0.3-1.9c0.2-0.6,0.5-1,0.8-1.4
			c0.3-0.4,0.7-0.7,1.2-0.9c0.4-0.2,0.9-0.3,1.4-0.3c0.5,0,0.9,0.1,1.4,0.3c0.4,0.2,0.8,0.5,1.2,0.9s0.6,0.9,0.8,1.4
			C17.7,23.5,17.8,24.1,17.8,24.8z M12.2,24.8c0,0.5,0.1,0.9,0.2,1.2c0.1,0.4,0.3,0.7,0.4,0.9c0.2,0.2,0.4,0.4,0.6,0.5
			c0.2,0.1,0.5,0.2,0.7,0.2c0.2,0,0.5-0.1,0.7-0.2c0.2-0.1,0.4-0.3,0.6-0.5c0.2-0.2,0.3-0.5,0.4-0.9c0.1-0.4,0.2-0.8,0.2-1.2
			c0-0.5-0.1-0.9-0.2-1.2c-0.1-0.4-0.3-0.7-0.4-0.9c-0.2-0.2-0.4-0.4-0.6-0.5s-0.5-0.2-0.7-0.2c-0.2,0-0.5,0.1-0.7,0.2
			c-0.2,0.1-0.4,0.3-0.6,0.5c-0.2,0.2-0.3,0.5-0.4,0.9C12.2,23.9,12.2,24.3,12.2,24.8z"/>
		<path d="M25.1,27.6h-0.9v1.6h-1.7v-1.6h-3.9v-1.5l3.6-5.7h2V26h0.9V27.6z M22.5,26v-3.3L20.4,26H22.5z"/>
	</g>
</g>
</svg>
