<?xml version="1.0" encoding="utf-8"?>
<!-- Generator: Adobe Illustrator 21.1.0, SVG Export Plug-In . SVG Version: 6.00 Build 0)  -->
<svg version="1.1" id="Layer_1" xmlns="http://www.w3.org/2000/svg" xmlns:xlink="http://www.w3.org/1999/xlink" x="0px" y="0px"
	 viewBox="0 0 110.2 110.2" style="enable-background:new 0 0 110.2 110.2;" xml:space="preserve">
<style type="text/css">
	.st0{fill:#FFFFFF;}
	.st1{fill:#FFC300;}
</style>
<g>
	<g>
		<path class="st0" d="M55.1,16.9c21.1,0,38.2,17.1,38.2,38.2S76.2,93.3,55.1,93.3S16.9,76.2,16.9,55.1S34,16.9,55.1,16.9
			 M55.1,15.9c-21.7,0-39.2,17.6-39.2,39.2s17.6,39.2,39.2,39.2s39.2-17.6,39.2-39.2S76.8,15.9,55.1,15.9L55.1,15.9z"/>
	</g>
	<g>
		<circle class="st1" cx="55.1" cy="55.1" r="25"/>
	</g>
	<polygon class="st0" points="58.6,55.1 54.1,52.1 54.1,58.1 	"/>
	<g>
		<path class="st0" d="M55.1,1c29.8,0,54.1,24.3,54.1,54.1S85,109.2,55.1,109.2S1,85,1,55.1S25.3,1,55.1,1 M55.1,0
			C24.7,0,0,24.7,0,55.1s24.7,55.1,55.1,55.1s55.1-24.7,55.1-55.1S85.6,0,55.1,0L55.1,0z"/>
	</g>
</g>
</svg>
